<?xml version="1.0" encoding="UTF-8" standalone="no"?>
<!-- Created with Inkscape (http://www.inkscape.org/) -->

<svg
   width="64"
   height="64"
   viewBox="0 0 16.933333 16.933333"
   version="1.1"
   id="svg5"
   inkscape:version="1.2.2 (b0a8486541, 2022-12-01)"
   sodipodi:docname="icon-source.svg"
   inkscape:export-filename="icon.svg"
   inkscape:export-xdpi="96"
   inkscape:export-ydpi="96"
   xmlns:inkscape="http://www.inkscape.org/namespaces/inkscape"
   xmlns:sodipodi="http://sodipodi.sourceforge.net/DTD/sodipodi-0.dtd"
   xmlns="http://www.w3.org/2000/svg"
   xmlns:svg="http://www.w3.org/2000/svg">
  <sodipodi:namedview
     id="namedview7"
     pagecolor="#505050"
     bordercolor="#eeeeee"
     borderopacity="1"
     inkscape:showpageshadow="0"
     inkscape:pageopacity="0"
     inkscape:pagecheckerboard="0"
     inkscape:deskcolor="#505050"
     inkscape:document-units="px"
     showgrid="true"
     inkscape:zoom="1.6525331"
     inkscape:cx="248.10396"
     inkscape:cy="331.61212"
     inkscape:window-width="1920"
     inkscape:window-height="1011"
     inkscape:window-x="0"
     inkscape:window-y="32"
     inkscape:window-maximized="1"
     inkscape:current-layer="layer1">
    <inkscape:grid
       type="xygrid"
       id="grid77"
       spacingx="1.0583333"
       spacingy="1.0583333"
       dotted="true"
       originx="0"
       originy="0"
       empspacing="4" />
  </sodipodi:namedview>
  <defs
     id="defs2" />
  <g
     inkscape:label="Слой 1"
     inkscape:groupmode="layer"
     id="layer1">
    <rect
       style="fill:#c01c28;stroke-width:0.298152"
       id="rect301"
       width="16.933332"
       height="10.583333"
       x="2.5431316e-07"
       y="4.2333331"
       rx="1.0583333"
       ry="1.0583333" />
    <rect
       style="fill:#a51d2d;stroke-width:0.258206"
       id="rect359"
       width="16.933332"
       height="5.2916665"
       x="1.7838134e-07"
       y="5.2916665"
       rx="1.0583333"
       ry="1.0583333" />
    <rect
       style="fill:#c01c28;stroke-width:0.210826"
       id="rect301-3"
       width="16.933332"
       height="5.291667"
       x="3.5676268e-07"
       y="4.2333331"
       rx="1.0583333"
       ry="1.0583333" />
    <rect
       style="fill:#e01b24;stroke-width:0.258206"
       id="rect359-3"
       width="16.933332"
       height="5.2916665"
       x="5.0862627e-07"
       y="2.1166668"
       rx="1.0583333"
       ry="1.0583333" />
    <rect
       style="fill:#deddda;stroke-width:0.264583"
       id="rect492"
       width="2.1166666"
       height="3.175"
       x="3.175"
       y="8.4666662"
       rx="0.52916664"
       ry="0.52916664" />
    <rect
       style="fill:#deddda;stroke-width:0.264583"
       id="rect494"
       width="2.1166666"
       height="3.175"
       x="11.641666"
       y="8.4666662"
       rx="0.52916664"
       ry="0.52916664" />
    <path
       id="rect603"
       style="fill:#3d3846;stroke-width:0.264583"
       d="m 6.3499994,-1e-7 C 5.1773684,0 4.2333324,0.9440356 4.2333324,2.1166666 v 2.1166666 h 2.116667 V 3.1749999 c 0,-0.5863155 0.472018,-1.0583333 1.058333,-1.0583333 h 2.1166668 c 0.5863158,0 1.0583338,0.4720178 1.0583338,1.0583333 V 4.2333332 H 12.7 V 2.1166666 C 12.7,0.9440356 11.755964,-10e-8 10.583333,-10e-8 Z" />
    <path
       id="rect603-7"
       style="fill:#241f31;stroke-width:0.264583"
       d="m 6.3499992,1.0583332 c -1.172631,10e-8 -2.116667,0.9440353 -2.116667,2.1166663 v 2.116667 h 2.116667 v -1.058333 c 0,-0.586316 0.472018,-1.058334 1.058333,-1.058334 h 2.116667 c 0.5863158,0 1.0583338,0.472018 1.0583338,1.058334 v 1.058333 H 12.7 v -2.116667 c 0,-1.172631 -0.944036,-2.1166663 -2.116667,-2.1166663 z" />
  </g>
</svg>
