<svg width="64" height="64" viewBox="0 0 64 64" version="1.1" xmlns="http://www.w3.org/2000/svg" xmlns:svg="http://www.w3.org/2000/svg">
<rect fill="#c01c28" width="64" height="28" x="0" y="28" rx="4" ry="4" />
<rect fill="#a51d2d" width="64" height="16" x="0" y="24" rx="4" ry="4" />
<rect fill="#c01c28" width="64" height="16" x="0" y="20" rx="4" ry="4" />
<rect fill="#e01b24" width="64" height="20" x="0" y="8" rx="4" ry="4" />
<rect fill="#f6f5f4" width="8" height="12" x="12" y="32" rx="2" ry="2" />
<rect fill="#f6f5f4" width="8" height="12" x="44" y="32" rx="2" ry="2" />
<rect fill="#3d3846" width="32" height="24" x="16" y="0" rx="8" ry="8" />
<rect fill="#241f31" width="32" height="20" x="16" y="4" rx="8" ry="8" />
<rect fill="#241f31" width="32" height="12" x="16" y="12" />
<rect fill="#e01b24" width="40" height="8" x="12" y="20" />
<rect fill="#e01b24" width="16" height="16" x="24" y="12" rx="4" ry="4" />
</svg>
